<?xml version="1.0" standalone="no"?>
<!DOCTYPE svg PUBLIC "-//W3C//DTD SVG 20010904//EN"
 "http://www.w3.org/TR/2001/REC-SVG-20010904/DTD/svg10.dtd">
<svg version="1.0" xmlns="http://www.w3.org/2000/svg"
 width="512.000000pt" height="512.000000pt" viewBox="0 0 512.000000 512.000000"
 preserveAspectRatio="xMidYMid meet">

<g transform="translate(0.000000,512.000000) scale(0.100000,-0.100000)"
fill="#000000" stroke="none">
<path d="M1545 4936 c-23 -23 -25 -32 -25 -121 l0 -95 -135 0 c-131 0 -137 -1
-160 -25 l-25 -24 0 -416 0 -415 -415 0 -416 0 -24 -25 c-25 -24 -25 -27 -25
-198 l0 -175 -25 -6 c-53 -13 -57 -35 -53 -274 l3 -218 37 -76 38 -76 0 -1076
0 -1076 -55 0 c-46 0 -60 -4 -80 -25 -25 -24 -25 -26 -25 -215 0 -189 0 -191
25 -215 l24 -25 2351 0 2351 0 24 25 c25 24 25 26 25 215 0 189 0 191 -25 215
-20 21 -34 25 -80 25 l-55 0 0 1076 0 1076 37 76 38 76 3 218 c4 239 0 261
-53 274 l-25 6 0 175 c0 171 0 174 -25 198 l-24 25 -416 0 -415 0 0 415 0 416
-25 24 c-23 24 -29 25 -160 25 l-135 0 0 95 c0 89 -2 98 -25 121 l-25 25 -383
-3 -382 -3 -66 -31 c-36 -18 -87 -52 -113 -76 l-46 -45 -46 45 c-26 24 -77 58
-113 76 l-66 31 -382 3 -383 3 -25 -25z m795 -160 c49 -26 88 -64 113 -111 22
-39 22 -48 25 -592 l3 -553 -401 0 -400 0 0 641 0 640 313 -3 c282 -3 315 -5
347 -22z m1100 -616 l0 -640 -400 0 -401 0 3 553 c3 516 4 554 22 587 35 66
87 110 156 131 14 4 159 8 323 8 l297 1 0 -640z m-1920 -175 l0 -576 25 -24
24 -25 991 0 991 0 24 25 25 24 0 576 0 575 80 0 80 0 0 -680 0 -680 -1200 0
-1200 0 0 680 0 680 80 0 80 0 0 -575z m-320 -425 l0 -120 -360 0 -360 0 0
120 0 120 360 0 360 0 0 -120z m3440 0 l0 -120 -360 0 -360 0 0 120 0 120 360
0 360 0 0 -120z m-3762 -427 c-4 -140 -6 -151 -33 -201 -88 -161 -307 -169
-401 -14 -36 60 -44 104 -44 253 l0 109 241 0 241 0 -4 -147z m322 52 c0 -88
2 -98 25 -120 23 -24 29 -25 161 -25 l136 0 -7 -37 c-22 -120 -115 -197 -235
-197 -97 0 -169 44 -216 134 -15 29 -19 63 -22 188 l-4 152 81 0 81 0 0 -95z
m2878 -57 c-3 -125 -7 -159 -22 -188 -47 -90 -119 -134 -216 -134 -120 0 -213
77 -235 197 l-7 37 136 0 c132 0 138 1 161 25 23 22 25 32 25 120 l0 95 81 0
81 0 -4 -152z m640 4 c-4 -143 -5 -150 -35 -203 -91 -162 -315 -162 -406 0
-30 53 -31 60 -35 203 l-4 148 242 0 242 0 -4 -148z m-2568 -131 c-29 -160
-202 -242 -343 -163 -59 33 -105 97 -117 162 l-7 40 237 0 237 0 -7 -39z m645
2 c-22 -120 -115 -197 -235 -197 -120 0 -213 77 -235 197 l-7 37 242 0 242 0
-7 -37z m635 -2 c-29 -160 -202 -242 -343 -163 -59 33 -105 97 -117 162 l-7
40 237 0 237 0 -7 -39z m-2430 -246 c96 -99 255 -139 391 -99 65 19 110 45
167 98 l42 39 43 -39 c112 -104 250 -138 388 -98 65 19 110 45 167 98 l42 39
43 -39 c56 -53 101 -79 166 -98 138 -40 276 -6 389 98 l42 39 43 -39 c56 -53
101 -79 166 -98 138 -40 276 -6 389 98 l42 39 43 -39 c83 -77 173 -114 277
-114 104 0 194 37 278 114 l43 39 37 -35 c55 -52 91 -74 160 -97 72 -25 159
-27 228 -6 27 8 50 15 52 15 1 0 2 -457 2 -1015 l0 -1015 -160 0 -160 0 0 895
0 896 -25 24 -24 25 -471 0 -471 0 -24 -25 -25 -24 0 -896 0 -895 -1400 0
-1400 0 0 1015 c0 558 1 1015 3 1015 1 0 24 -7 51 -15 131 -40 300 7 395 109
14 14 27 26 31 26 3 0 22 -16 40 -35z m3800 -2355 l0 -80 -2240 0 -2240 0 0
80 0 80 2240 0 2240 0 0 -80z"/>
<path d="M1840 4480 l0 -80 240 0 240 0 0 80 0 80 -240 0 -240 0 0 -80z"/>
<path d="M1840 4160 l0 -80 240 0 240 0 0 80 0 80 -240 0 -240 0 0 -80z"/>
<path d="M1840 3840 l0 -80 240 0 240 0 0 80 0 80 -240 0 -240 0 0 -80z"/>
<path d="M2800 4480 l0 -80 240 0 240 0 0 80 0 80 -240 0 -240 0 0 -80z"/>
<path d="M2800 4160 l0 -80 240 0 240 0 0 80 0 80 -240 0 -240 0 0 -80z"/>
<path d="M2800 3840 l0 -80 240 0 240 0 0 80 0 80 -240 0 -240 0 0 -80z"/>
<path d="M825 2455 l-25 -24 0 -671 0 -671 25 -24 24 -25 1031 0 1031 0 24 25
25 24 0 671 0 671 -25 24 -24 25 -1031 0 -1031 0 -24 -25z"/>
</g>
</svg>
